# xmcd CD database file
#
# Track frame offsets:
#	182
#	14027
#	41392
#	60237
#	78442
#	99090
#	128035
#	145690
#	161252
#	176497
#	194230
#	212552
#	229047
#	258017
#
# Disc length: 3775 seconds
#
# Revision: 0
# Processed by: cddbd v1.5.2PL0 Copyright (c) Steve Scherf et al.
# Submitted via: CDex 1.70beta2
#
DISCID=ac0ebd0e
DTITLE=Milt Hinton - The Basement Tapes
DYEAR=1900
DGENRE=Jazz
TTITLE0=Raincheck - Strayhorn
TTITLE1=A Time For Love - Webster - Mandel
TTITLE2=Johnny Come Lately - Strayhorn
TTITLE3=Fascinating Rhythm - Gershwin
TTITLE4=Blessed Assurance - Traditional
TTITLE5=Monas Feeling Lonely - Hinton
TTITLE6=Order In The Court - Wess
TTITLE7=Wade In The Water - Traditional
TTITLE8=Night And Day - Porter
TTITLE9=As Long as I Live - Koehler - Arlen
TTITLE10=Love Me or Leave Me - Kahn - Donaldson
TTITLE11=Old Man Time - Friend - Reynolds
TTITLE12=Summertime - Gershwin
TTITLE13=Traveling All Alone - Johnson
EXTD=
EXTT0=
EXTT1=
EXTT2=
EXTT3=
EXTT4=
EXTT5=
EXTT6=
EXTT7=
EXTT8=
EXTT9=
EXTT10=
EXTT11=
EXTT12=
EXTT13=
PLAYORDER=
